<svg width="18" height="20" viewBox="0 0 18 20" fill="none" xmlns="http://www.w3.org/2000/svg">
<path fill-rule="evenodd" clip-rule="evenodd" d="M9 0.5C9.55229 0.5 10 0.947715 10 1.5V11.0858L13.2929 7.79289C13.6834 7.40237 14.3166 7.40237 14.7071 7.79289C15.0976 8.18342 15.0976 8.81658 14.7071 9.20711L9.70711 14.2071C9.31658 14.5976 8.68342 14.5976 8.29289 14.2071L3.29289 9.20711C2.90237 8.81658 2.90237 8.18342 3.29289 7.79289C3.68342 7.40237 4.31658 7.40237 4.70711 7.79289L8 11.0858V1.5C8 0.947715 8.44772 0.5 9 0.5ZM1 13.5C1.55228 13.5 2 13.9477 2 14.5V16.5C2 16.7652 2.10536 17.0196 2.29289 17.2071C2.48043 17.3946 2.73478 17.5 3 17.5H15C15.2652 17.5 15.5196 17.3946 15.7071 17.2071C15.8946 17.0196 16 16.7652 16 16.5V14.5C16 13.9477 16.4477 13.5 17 13.5C17.5523 13.5 18 13.9477 18 14.5V16.5C18 17.2957 17.6839 18.0587 17.1213 18.6213C16.5587 19.1839 15.7957 19.5 15 19.5H3C2.20435 19.5 1.44129 19.1839 0.87868 18.6213C0.31607 18.0587 0 17.2957 0 16.5V14.5C0 13.9477 0.447715 13.5 1 13.5Z" fill="#111111"/>
</svg>
